<?xml version="1.0" encoding="UTF-8" standalone="no"?>
<svg
   xmlns:osb="http://www.openswatchbook.org/uri/2009/osb"
   xmlns:dc="http://purl.org/dc/elements/1.1/"
   xmlns:cc="http://creativecommons.org/ns#"
   xmlns:rdf="http://www.w3.org/1999/02/22-rdf-syntax-ns#"
   xmlns:svg="http://www.w3.org/2000/svg"
   xmlns="http://www.w3.org/2000/svg"
   xmlns:sodipodi="http://sodipodi.sourceforge.net/DTD/sodipodi-0.dtd"
   xmlns:inkscape="http://www.inkscape.org/namespaces/inkscape"
   width="52.916668mm"
   height="61.45084mm"
   viewBox="0 0 52.916669 61.450839"
   version="1.1"
   id="svg8"
   inkscape:version="1.0 (4035a4fb49, 2020-05-01)"
   sodipodi:docname="pic-draw.svg">
  <defs
     id="defs2">
    <linearGradient
       id="linearGradient940"
       osb:paint="solid">
      <stop
         style="stop-color:#00ac00;stop-opacity:1;"
         offset="0"
         id="stop938" />
    </linearGradient>
    <linearGradient
       id="linearGradient934"
       osb:paint="solid">
      <stop
         style="stop-color:#00a400;stop-opacity:1;"
         offset="0"
         id="stop932" />
    </linearGradient>
  </defs>
  <sodipodi:namedview
     fit-margin-bottom="0"
     fit-margin-right="0"
     fit-margin-left="0"
     fit-margin-top="0"
     id="base"
     pagecolor="#ffffff"
     bordercolor="#666666"
     borderopacity="1.0"
     inkscape:pageopacity="0.0"
     inkscape:pageshadow="2"
     inkscape:zoom="1.979899"
     inkscape:cx="127.93453"
     inkscape:cy="59.842572"
     inkscape:document-units="mm"
     inkscape:current-layer="layer1"
     inkscape:document-rotation="0"
     showgrid="false"
     inkscape:window-width="1920"
     inkscape:window-height="1017"
     inkscape:window-x="-8"
     inkscape:window-y="-8"
     inkscape:window-maximized="1" />
  <metadata
     id="metadata5">
    <rdf:RDF>
      <cc:Work
         rdf:about="">
        <dc:format>image/svg+xml</dc:format>
        <dc:type
           rdf:resource="http://purl.org/dc/dcmitype/StillImage" />
        <dc:title></dc:title>
      </cc:Work>
    </rdf:RDF>
  </metadata>
  <g
     transform="translate(-23.685986,-65.073362)"
     inkscape:label="Слой 1"
     inkscape:groupmode="layer"
     id="layer1">
    <g
       id="g1159"
       style="stroke:#001eec;stroke-width:0.351639;stroke-miterlimit:4;stroke-dasharray:none;stroke-opacity:1"
       transform="matrix(0.71337831,0,0,0.71337831,-232.59766,-68.621268)">
      <path
         style="display:inline;fill:none;stroke:#001eec;stroke-width:0.351639;stroke-linecap:butt;stroke-linejoin:miter;stroke-miterlimit:4;stroke-dasharray:none;stroke-opacity:1"
         d="m 386.31776,256.46631 c 0,0 1.17689,0.80117 1.81195,1.11801 0.82106,0.40963 1.69509,0.7067 2.56372,1.00236 0.65255,0.2221 1.3118,0.43211 1.98544,0.57828 0.87559,0.18999 1.7721,0.26631 2.6601,0.38552 0.57108,0.0767 1.14004,0.18424 1.71557,0.21203 0.96945,0.0468 1.94314,-5.3e-4 2.91069,-0.0771 0.93038,-0.0735 1.8675,-0.15161 2.77576,-0.36624 0.70796,-0.1673 1.3877,-0.44159 2.06255,-0.71321 0.51206,-0.20611 1.03139,-0.408 1.50353,-0.69395 0.66617,-0.40346 1.85051,-1.42642 1.85051,-1.42642"
         id="path838"
         inkscape:connector-curvature="0"
         sodipodi:nodetypes="caaaaaaaaac" />
      <path
         style="display:inline;fill:none;stroke:#001eec;stroke-width:0.351639;stroke-linecap:butt;stroke-linejoin:miter;stroke-miterlimit:4;stroke-dasharray:none;stroke-opacity:1"
         d="m 392.67887,259.16496 c 0,0 0.0636,0.70333 0.12529,1.05055 0.0462,0.26008 0.10872,0.51757 0.18313,0.77104 0.10646,0.36267 0.37588,1.06982 0.37588,1.06982"
         id="path840"
         inkscape:connector-curvature="0"
         sodipodi:nodetypes="caac" />
      <path
         style="display:inline;fill:none;stroke:#001eec;stroke-width:0.351639;stroke-linecap:butt;stroke-linejoin:miter;stroke-miterlimit:4;stroke-dasharray:none;stroke-opacity:1"
         d="m 399.96523,259.68541 -0.009,1.61354"
         id="path842"
         inkscape:connector-curvature="0"
         sodipodi:nodetypes="cc" />
      <path
         style="display:inline;fill:none;stroke:#001eec;stroke-width:0.351639;stroke-linecap:butt;stroke-linejoin:miter;stroke-miterlimit:4;stroke-dasharray:none;stroke-opacity:1"
         d="m 412.08723,231.83033 c 0,0 -0.99164,-0.52225 -1.5105,-0.73137 -0.58612,-0.23623 -1.18786,-0.4404 -1.80232,-0.58792 -0.72416,-0.17386 -1.46453,-0.29027 -2.20711,-0.34698 -0.91617,-0.07 -1.84244,-0.084 -2.75649,0.01 -0.75339,0.0772 -1.49578,0.25356 -2.22639,0.45299 -0.56063,0.15304 -1.1093,0.35086 -1.6481,0.56865 -0.8675,0.35064 -1.74347,0.7018 -2.54444,1.18547 -0.70846,0.42781 -1.3801,0.92902 -1.97581,1.50354 -0.5143,0.49602 -0.93718,1.08099 -1.35896,1.65775 -0.4003,0.54737 -0.81649,1.09384 -1.10837,1.70593 -0.27332,0.57315 -0.44876,1.19241 -0.58793,1.81196 -0.13772,0.61313 -0.21966,1.24172 -0.24095,1.86978 -0.0235,0.69159 0.006,1.39055 0.1253,2.07217 0.10793,0.61686 0.29746,1.22092 0.53009,1.80232 0.23218,0.58031 0.52076,1.141 0.85778,1.66739 0.32332,0.50497 0.71176,0.96709 1.10838,1.41679 0.40422,0.4583 0.81833,0.91442 1.2915,1.30114 0.51194,0.41839 1.07877,0.76983 1.65774,1.0891 0.57789,0.31866 1.18905,0.5755 1.80232,0.81923 0.46074,0.18311 0.92832,0.35333 1.40715,0.4819 0.44908,0.12058 0.91016,0.19217 1.3686,0.26986 0.56309,0.0954 1.12662,0.2007 1.6963,0.24096 0.44226,0.0312 0.88695,-0.0146 1.33006,0 0.29283,0.01 0.58452,0.0741 0.87705,0.0578 0.40081,-0.0223 0.7923,-0.13111 1.18548,-0.21204 0.42974,-0.0885 0.86039,-0.17691 1.28187,-0.29878 0.5218,-0.15088 1.53951,-0.53413 1.53951,-0.53413"
         id="path844"
         inkscape:connector-curvature="0"
         sodipodi:nodetypes="caaaaaaaaaaaaaaaaaaaaaaaaaac" />
      <path
         style="display:inline;fill:none;stroke:#001eec;stroke-width:0.351639;stroke-linecap:butt;stroke-linejoin:miter;stroke-miterlimit:4;stroke-dasharray:none;stroke-opacity:1"
         d="m 396.82134,241.15342 c 0,0 -0.15262,-1.01995 -0.0954,-1.52658 0.0468,-0.41428 0.10381,-0.86626 0.35438,-1.19947 0.23331,-0.31026 0.60295,-0.54047 0.98138,-0.62699 0.41038,-0.0938 0.86431,-0.009 1.25398,0.14993 0.18591,0.076 0.30207,0.26947 0.47706,0.36802 0.18674,0.10516 0.43461,0.0951 0.59973,0.23171 0.25159,0.20815 0.38454,0.53343 0.51795,0.83145 0.15862,0.35431 0.28785,0.73149 0.32713,1.11768 0.0337,0.33108 -0.006,0.67089 -0.0818,0.99501 -0.0787,0.33772 -0.17512,0.68919 -0.38164,0.96775 -0.20031,0.27019 -0.79056,0.62699 -0.79056,0.62699"
         id="path846"
         inkscape:connector-curvature="0"
         sodipodi:nodetypes="caaaaaaaaaac" />
      <path
         style="display:inline;fill:none;stroke:#001eec;stroke-width:0.351639;stroke-linecap:butt;stroke-linejoin:miter;stroke-miterlimit:4;stroke-dasharray:none;stroke-opacity:1"
         d="m 414.2817,235.57864 c 0,0 -0.39652,0.33227 -0.50432,0.55885 -0.11456,0.24082 -0.13885,0.52437 -0.12267,0.79055 0.0132,0.21678 0.0782,0.43367 0.17719,0.627 0.16652,0.32528 0.44276,0.58205 0.68152,0.8587 0.0651,0.0754 0.20445,0.21809 0.20445,0.21809"
         id="path848"
         inkscape:connector-curvature="0"
         sodipodi:nodetypes="caaaac" />
      <path
         style="display:inline;fill:none;stroke:#001eec;stroke-width:0.351639;stroke-linecap:butt;stroke-linejoin:miter;stroke-miterlimit:4;stroke-dasharray:none;stroke-opacity:1"
         d="m 390.03347,227.55724 c 0,0 -0.63812,-0.13061 -0.96093,-0.12267 -0.2722,0.007 -0.53924,0.0804 -0.80419,0.14312 -0.25599,0.0606 -0.51762,0.11466 -0.75648,0.22489 -0.28034,0.12937 -0.54156,0.30449 -0.77692,0.50432 -0.39351,0.33409 -1.04272,1.14494 -1.04272,1.14494 0,0 0.62005,-0.10786 0.92686,-0.17719 0.25421,-0.0574 0.50533,-0.12798 0.75648,-0.19764 0.24868,-0.069 0.49825,-0.13579 0.74285,-0.21808 0.21194,-0.0713 0.42787,-0.13677 0.62699,-0.23853 0.25416,-0.12989 0.49585,-0.28808 0.71559,-0.47024 0.2115,-0.17534 0.57247,-0.59292 0.57247,-0.59292 z"
         id="path850"
         inkscape:connector-curvature="0"
         sodipodi:nodetypes="caaaacaaaaac" />
      <path
         style="display:inline;fill:none;stroke:#001eec;stroke-width:0.351639;stroke-linecap:butt;stroke-linejoin:miter;stroke-miterlimit:4;stroke-dasharray:none;stroke-opacity:1"
         d="m 411.14675,225.02883 c 0.1363,-0.0409 0.68434,-0.18746 1.03589,-0.20446 0.32378,-0.0157 0.64986,0.032 0.96775,0.0954 0.32137,0.0641 0.64425,0.14615 0.94049,0.28624 0.26656,0.12605 0.73603,0.49069 0.73603,0.49069 0,0 -0.22408,0.26336 -0.36801,0.35438 -0.18473,0.11681 -0.39488,0.22619 -0.61336,0.23172 -0.38639,0.01 -0.73987,-0.22494 -1.10406,-0.35439 -0.29415,-0.10454 -0.58499,-0.21874 -0.87233,-0.34076 -0.17029,-0.0723 -0.36363,-0.11157 -0.50432,-0.23171 -0.0997,-0.0851 -0.21808,-0.32713 -0.21808,-0.32712 z"
         id="path852"
         inkscape:connector-curvature="0"
         sodipodi:nodetypes="caaacaaaaac" />
      <path
         style="display:inline;fill:none;stroke:#001eec;stroke-width:0.351639;stroke-linecap:butt;stroke-linejoin:miter;stroke-miterlimit:4;stroke-dasharray:none;stroke-opacity:1"
         d="m 391.7247,217.79845 c 0,0 -0.37111,0.53548 -0.53009,0.81924 -0.12713,0.2269 -0.23247,0.46556 -0.33733,0.70357 -0.10055,0.2282 -0.19919,0.45786 -0.27951,0.69394 -0.0537,0.15792 -0.13493,0.4819 -0.13493,0.4819"
         id="path854"
         inkscape:connector-curvature="0"
         sodipodi:nodetypes="caaac" />
      <path
         style="display:inline;fill:none;stroke:#001eec;stroke-width:0.351639;stroke-linecap:butt;stroke-linejoin:miter;stroke-miterlimit:4;stroke-dasharray:none;stroke-opacity:1"
         d="m 392.44756,221.5862 c 0,0 0.40148,-0.71371 0.64575,-1.0409 0.23414,-0.31363 0.51207,-0.59239 0.78068,-0.87706 0.18085,-0.19167 0.36122,-0.38488 0.559,-0.55901 0.16158,-0.14227 0.34748,-0.25494 0.51082,-0.39516 0.13794,-0.11842 0.24299,-0.27641 0.39516,-0.37589 0.14583,-0.0953 0.33782,-0.10444 0.4819,-0.20239 0.16721,-0.1137 0.24383,-0.34209 0.42407,-0.43372 0.19968,-0.1015 0.46029,-0.005 0.66503,-0.0964 0.22108,-0.0981 0.3291,-0.3875 0.55901,-0.46263 0.20497,-0.067 0.43637,0.0901 0.64575,0.0386 0.2477,-0.061 0.40878,-0.32988 0.65539,-0.39516 0.24853,-0.0658 0.51677,0.0573 0.77104,0.0193 0.17081,-0.0255 0.32042,-0.14044 0.49154,-0.16385 0.25496,-0.0349 0.51493,0.0636 0.77104,0.0385 0.22412,-0.0219 0.43028,-0.15816 0.65539,-0.16385 0.21604,-0.005 0.42,0.12469 0.63611,0.1253 0.22242,5.3e-4 0.4335,-0.14065 0.65539,-0.1253 0.18953,0.0131 0.35274,0.1495 0.53973,0.18313 0.32898,0.0592 0.67426,-0.035 1.00236,0.0289 0.26242,0.0511 0.48939,0.22819 0.75176,0.2795 0.20819,0.0407 0.43256,-0.0404 0.63611,0.0193 0.25167,0.0738 0.44021,0.28729 0.67467,0.4048 0.23936,0.11996 0.7433,0.30443 0.7433,0.30443"
         id="path856"
         inkscape:connector-curvature="0"
         sodipodi:nodetypes="caaaaaaaaaaaaaaaaaaaaaac" />
      <path
         style="display:inline;fill:none;stroke:#001eec;stroke-width:0.351639;stroke-linecap:butt;stroke-linejoin:miter;stroke-miterlimit:4;stroke-dasharray:none;stroke-opacity:1"
         d="m 393.22824,222.91625 c 0,0 0.69065,-0.56842 1.06018,-0.81923 0.31822,-0.21597 0.65013,-0.41318 0.99272,-0.58792 0.30251,-0.15429 0.62901,-0.25731 0.93489,-0.4048 0.29518,-0.14232 0.56653,-0.33285 0.86743,-0.46262 0.35169,-0.15168 0.7202,-0.26326 1.0891,-0.36625 0.45343,-0.12661 0.91249,-0.23978 1.37823,-0.30842 0.39516,-0.0582 0.79609,-0.0692 1.19512,-0.0867 0.42051,-0.0185 0.84242,-0.0442 1.26259,-0.0193 0.38507,0.0229 0.76807,0.0816 1.14693,0.15422 0.40329,0.0773 0.80484,0.17109 1.19512,0.29877 0.41222,0.13486 0.81368,0.30396 1.20476,0.49154 0.32804,0.15736 0.64551,0.33743 0.95416,0.53009 0.25252,0.15762 0.49969,0.32531 0.73249,0.51082 0.14586,0.11622 0.23112,0.34155 0.41444,0.37588 0.29087,0.0545 0.58231,-0.15438 0.82887,-0.31805 0.19817,-0.13156 0.49426,-0.51471 0.49426,-0.51471"
         id="path858"
         inkscape:connector-curvature="0"
         sodipodi:nodetypes="caaaaaaaaaaaaaaac" />
      <path
         style="display:inline;fill:none;stroke:#001eec;stroke-width:0.351639;stroke-linecap:butt;stroke-linejoin:miter;stroke-miterlimit:4;stroke-dasharray:none;stroke-opacity:1"
         d="m 395.46513,233.82035 c 0,0 0.0468,-2.07336 0.12443,-3.10691 0.0746,-0.99273 0.17309,-1.98509 0.32769,-2.96852 0.12937,-0.82284 0.28181,-1.64453 0.50118,-2.44807 0.11453,-0.41949 0.22494,-0.84709 0.42407,-1.23367 0.22781,-0.44223 0.48129,-0.90077 0.86743,-1.21439 0.22333,-0.18138 0.50482,-0.3113 0.79032,-0.34697 0.38783,-0.0485 0.79928,0.0343 1.15657,0.19276 0.35959,0.15946 0.6489,0.45255 0.92525,0.7325 0.27357,0.27713 0.61373,0.93713 0.71322,0.92525 0.12128,-0.0145 0.21588,-0.96727 0.46262,-1.38788 0.14959,-0.25501 0.34492,-0.50186 0.59756,-0.65539 0.0852,-0.0518 0.19024,-0.0641 0.28914,-0.0771 0.29307,-0.0384 0.59804,-0.0635 0.8867,0 0.46326,0.10198 0.8949,0.33733 1.2915,0.59756 0.33103,0.2172 0.60923,0.50788 0.8867,0.79032 0.29696,0.30226 0.57273,0.62625 0.82887,0.9638 0.35011,0.46137 0.66284,0.95087 0.96381,1.44571 0.28993,0.47668 0.56218,0.9649 0.80959,1.46498 0.20541,0.41517 0.42384,0.82918 0.55901,1.27222 0.10426,0.34174 0.16912,1.09491 0.0771,1.13729 -0.14461,0.0666 -0.69741,-0.26539 -1.06019,-0.34697 -0.44865,-0.10088 -0.90921,-0.15301 -1.3686,-0.17348 -0.5203,-0.0232 -1.04279,0.01 -1.56137,0.0578 -0.56278,0.0523 -1.11716,0.17296 -1.67702,0.25059 -0.5518,0.0765 -1.12434,0.0513 -1.65775,0.21203 -0.48699,0.14672 -0.91662,0.4414 -1.3686,0.67467 -0.40875,0.21096 -0.82258,0.41439 -1.21439,0.65539 -0.5701,0.35065 -1.6481,1.14693 -1.6481,1.14693"
         id="path860"
         inkscape:connector-curvature="0"
         sodipodi:nodetypes="caaaaaaaasaaaaaaaaassaaaaaaac" />
      <path
         style="display:inline;fill:none;stroke:#001eec;stroke-width:0.351639;stroke-linecap:butt;stroke-linejoin:miter;stroke-miterlimit:4;stroke-dasharray:none;stroke-opacity:1"
         d="m 401.29529,224.35233 c 0,0 0.0299,1.02845 0.0578,1.54209 0.0294,0.5403 0.079,1.07933 0.11565,1.61918 0.0541,0.79657 0.15421,2.39024 0.15421,2.39024"
         id="path862"
         inkscape:connector-curvature="0"
         sodipodi:nodetypes="caac" />
      <path
         style="display:inline;fill:none;stroke:#001eec;stroke-width:0.351639;stroke-linecap:butt;stroke-linejoin:miter;stroke-miterlimit:4;stroke-dasharray:none;stroke-opacity:1"
         d="m 397.15092,221.55729 c 0,0 -0.0521,0.55014 0.0578,0.79032 0.0983,0.21483 0.50118,0.50118 0.50118,0.50118"
         id="path864"
         inkscape:connector-curvature="0"
         sodipodi:nodetypes="cac" />
      <path
         style="display:inline;fill:none;stroke:#001eec;stroke-width:0.351639;stroke-linecap:butt;stroke-linejoin:miter;stroke-miterlimit:4;stroke-dasharray:none;stroke-opacity:1"
         d="m 398.11473,221.36453 c 0,0 0.0691,0.40427 0.13493,0.59756 0.064,0.18776 0.25059,0.53973 0.25059,0.53973"
         id="path866"
         inkscape:connector-curvature="0"
         sodipodi:nodetypes="cac" />
      <path
         style="display:inline;fill:none;stroke:#001eec;stroke-width:0.351639;stroke-linecap:butt;stroke-linejoin:miter;stroke-miterlimit:4;stroke-dasharray:none;stroke-opacity:1"
         d="m 399.32912,221.17177 c 0,0 -0.0147,0.51928 0.0385,0.77104 0.0556,0.26267 0.28915,0.75177 0.28915,0.75177"
         id="path868"
         inkscape:connector-curvature="0"
         sodipodi:nodetypes="cac" />
      <path
         style="display:inline;fill:none;stroke:#001eec;stroke-width:0.351639;stroke-linecap:butt;stroke-linejoin:miter;stroke-miterlimit:4;stroke-dasharray:none;stroke-opacity:1"
         d="m 402.0085,221.48018 c 0,0 0.31641,0.26375 0.44335,0.42408 0.0787,0.0994 0.19276,0.32769 0.19276,0.32769"
         id="path870"
         inkscape:connector-curvature="0"
         sodipodi:nodetypes="cac" />
      <path
         style="display:inline;fill:none;stroke:#001eec;stroke-width:0.351639;stroke-linecap:butt;stroke-linejoin:miter;stroke-miterlimit:4;stroke-dasharray:none;stroke-opacity:1"
         d="m 403.3,220.97901 c 0,0 0.25052,0.40642 0.28914,0.63611 0.0343,0.20366 -0.0578,0.61683 -0.0578,0.61683"
         id="path872"
         inkscape:connector-curvature="0"
         sodipodi:nodetypes="cac" />
      <path
         style="display:inline;fill:none;stroke:#001eec;stroke-width:0.351639;stroke-linecap:butt;stroke-linejoin:miter;stroke-miterlimit:4;stroke-dasharray:none;stroke-opacity:1"
         d="m 404.45656,221.26815 c 0,0 0.37947,0.45433 0.44336,0.73249 0.0621,0.27045 -0.0771,0.82887 -0.0771,0.82887"
         id="path874"
         inkscape:connector-curvature="0"
         sodipodi:nodetypes="cac" />
      <path
         style="display:inline;fill:none;stroke:#001eec;stroke-width:0.351639;stroke-linecap:butt;stroke-linejoin:miter;stroke-miterlimit:4;stroke-dasharray:none;stroke-opacity:1"
         d="m 405.88299,221.32598 c 0,0 0.2605,0.31323 0.3277,0.50118 0.0805,0.22516 0.10266,0.47546 0.0771,0.71321 -0.0217,0.20203 -0.0974,0.39888 -0.19276,0.57829 -0.099,0.18609 -0.38552,0.50117 -0.38552,0.50117"
         id="path876"
         inkscape:connector-curvature="0"
         sodipodi:nodetypes="caaac" />
      <path
         style="display:inline;fill:none;stroke:#001eec;stroke-width:0.351639;stroke-linecap:butt;stroke-linejoin:miter;stroke-miterlimit:4;stroke-dasharray:none;stroke-opacity:1"
         d="m 400.56279,230.05805 c -0.18648,0.0488 -0.35245,-0.18879 -0.46262,-0.34697 -0.1801,-0.25856 -0.23482,-0.59283 -0.26987,-0.90598 -0.0323,-0.28798 -0.037,-0.59358 0.0578,-0.86743 0.0484,-0.13978 0.10348,-0.35076 0.25059,-0.36623 0.18531,-0.0195 0.30065,0.231 0.4048,0.38551 0.16607,0.24636 0.27667,0.53619 0.3277,0.82888 0.0353,0.20265 0.0263,0.41623 -0.0193,0.61683 -0.0529,0.23284 -0.0581,0.59495 -0.28914,0.65539 z"
         id="path878"
         inkscape:connector-curvature="0"
         sodipodi:nodetypes="aaaaaaaaa" />
      <path
         style="display:inline;fill:none;stroke:#001eec;stroke-width:0.351639;stroke-linecap:butt;stroke-linejoin:miter;stroke-miterlimit:4;stroke-dasharray:none;stroke-opacity:1"
         d="m 402.8952,229.47977 c -0.17449,0.0102 -0.32083,-0.16737 -0.42407,-0.30842 -0.15602,-0.21314 -0.19901,-0.49271 -0.25059,-0.75177 -0.0528,-0.26535 -0.0898,-0.54094 -0.0578,-0.80959 0.0175,-0.14731 0.0467,-0.3048 0.13493,-0.42408 0.0604,-0.0817 0.14914,-0.17891 0.25059,-0.17348 0.18651,0.01 0.3168,0.21335 0.42407,0.36624 0.13433,0.19146 0.20484,0.42602 0.25059,0.65539 0.044,0.22063 0.0359,0.4503 0.0193,0.67466 -0.0135,0.18226 -0.009,0.37944 -0.0964,0.53974 -0.0546,0.0997 -0.13711,0.22469 -0.25059,0.23131 z"
         id="path880"
         inkscape:connector-curvature="0"
         sodipodi:nodetypes="aaaaaaaaaaa" />
      <path
         style="display:inline;opacity:1;fill:none;fill-opacity:1;fill-rule:evenodd;stroke:#001eec;stroke-width:0.351639;stroke-miterlimit:4;stroke-dasharray:none;stroke-opacity:1"
         d="m 405.87206,214.32908 c -0.48415,-0.61705 -1.06512,-1.17313 -1.71773,-1.60816 -0.75465,-0.50307 -1.59802,-0.90834 -2.48047,-1.11777 -0.64711,-0.15357 -1.31854,-0.2168 -1.98902,-0.21239 h -1e-5 c -0.40228,0.003 -0.8041,0.0295 -1.20044,0.076 -1.05994,0.12418 -2.11379,0.4201 -3.08043,0.8723 -0.3578,0.16738 -0.69941,0.36484 -1.03198,0.57774"
         id="path1727"
         inkscape:connector-curvature="0" />
      <path
         style="display:inline;opacity:1;fill:none;fill-opacity:1;fill-rule:evenodd;stroke:#001eec;stroke-width:0.351639;stroke-miterlimit:4;stroke-dasharray:none;stroke-opacity:1"
         d="m 414.19816,219.70395 c 0.0638,-0.29014 0.11284,-0.5841 0.15193,-0.87695 0.10101,-0.7568 0.16758,-1.53473 0.0543,-2.28978 -0.0725,-0.48309 -0.3041,-1.42249 -0.46354,-1.3901 -0.2926,0.0594 -0.38665,1.17521 -0.62683,1.7446 -0.20042,0.47514 -0.38724,0.96327 -0.6196,1.4242"
         id="path1723"
         inkscape:connector-curvature="0" />
      <path
         style="display:inline;opacity:1;fill:none;fill-opacity:1;fill-rule:evenodd;stroke:#001eec;stroke-width:0.351639;stroke-miterlimit:4;stroke-dasharray:none;stroke-opacity:1"
         d="m 387.16519,258.43079 c 0.18053,0.25848 0.37264,0.51017 0.55138,0.76894 0.61777,0.89435 1.66735,2.63357 1.9079,2.64428 0.74522,0.033 2.56202,0.15324 3.84369,0.21808 0.40879,0.0207 0.81797,0.0349 1.2268,0.0548 1.02704,0.0501 2.05605,0.25252 3.08043,0.1633 0.36233,-0.0315 0.72864,-0.10178 1.06298,-0.24495 0.41008,-0.17559 1.11777,-0.73639 1.11777,-0.73639 0,0 -0.0103,0.27106 0.0548,0.38189 0.12144,0.20689 0.3462,0.35673 0.57257,0.43615 0.36023,0.12639 0.76412,0.058 1.14463,0.0274 0.8385,-0.0676 1.69172,-0.17252 2.48099,-0.46354 0.39339,-0.14505 0.77848,-0.34715 1.09037,-0.62735 0.18389,-0.1652 0.36433,-0.36292 0.43615,-0.59945 0.12123,-0.39927 -0.0144,-1.17038 -0.0439,-1.32808"
         id="path1719"
         inkscape:connector-curvature="0" />
      <path
         style="display:inline;opacity:1;fill:none;fill-opacity:1;fill-rule:evenodd;stroke:#001eec;stroke-width:0.351639;stroke-miterlimit:4;stroke-dasharray:none;stroke-opacity:1"
         d="m 376.31572,248.45362 c -0.0378,0.45438 -0.019,0.91418 0.11472,1.34152 0.16028,0.51232 0.5179,0.95846 0.89969,1.33583 0.47578,0.47029 1.04122,0.87726 1.66088,1.13275"
         id="path1715"
         inkscape:connector-curvature="0" />
      <path
         style="display:inline;opacity:1;fill:none;fill-opacity:1;fill-rule:evenodd;stroke:#001eec;stroke-width:0.351639;stroke-miterlimit:4;stroke-dasharray:none;stroke-opacity:1"
         d="m 384.70746,216.25248 c -0.54654,-0.0263 -1.12037,0.12207 -1.59836,0.36639 -0.50949,0.2604 -1.06643,0.69184 -1.17202,1.25418 -0.0177,0.0945 0.0309,0.18189 0.0884,0.26872"
         id="path1711"
         inkscape:connector-curvature="0" />
      <path
         style="display:inline;fill:none;stroke:#001eec;stroke-width:0.351639;stroke-linecap:butt;stroke-linejoin:miter;stroke-miterlimit:4;stroke-dasharray:none;stroke-opacity:1"
         d="m 387.15627,221.15249 c 0,0 0.5144,0.0695 0.77104,0.0482 0.45356,-0.0376 0.88902,-0.19608 1.33005,-0.30842 0.40713,-0.10369 1.11538,-0.40134 1.2144,-0.33733 0.24749,0.15999 0.59085,0.38401 0.99342,0.58373 0.40256,0.19972 0.86432,0.37514 0.9631,0.4379 0.38847,0.24686 0.67774,1.12167 0.78068,1.33969 0.0452,0.0958 -1.08585,-0.0839 -1.62883,-0.12529 -0.51079,-0.0389 -1.03124,-0.01 -1.53245,-0.11566 -0.51698,-0.10919 -1.01282,-0.31154 -1.4939,-0.53009 -0.29859,-0.13565 -0.59373,-0.2874 -0.85778,-0.4819 -0.19945,-0.14691 -0.60197,-0.41255 -0.53973,-0.51082 z"
         id="path831"
         inkscape:connector-curvature="0"
         sodipodi:nodetypes="saassssaaaas" />
      <path
         style="display:inline;fill:none;stroke:#001eec;stroke-width:0.351639;stroke-linecap:butt;stroke-linejoin:miter;stroke-miterlimit:4;stroke-dasharray:none;stroke-opacity:1"
         d="m 383.44562,249.87388 c -0.14172,0.20581 -0.31916,0.39612 -0.5301,0.5301 -0.27966,0.17761 -0.60854,0.28025 -0.93488,0.33732 -0.42723,0.0747 -0.87435,0.0772 -1.30114,0 -0.36114,-0.0653 -0.72262,-0.18699 -1.03127,-0.38552 -0.29042,-0.18679 -0.56401,-0.43109 -0.7325,-0.73249 -0.24334,-0.43532 -0.36324,-0.9569 -0.34697,-1.45534 0.0193,-0.58807 0.29211,-1.1444 0.52045,-1.68667 0.19583,-0.46504 0.42087,-0.9258 0.72286,-1.33004 0.28008,-0.37491 0.66103,-0.6626 0.99272,-0.99272 0.33975,-0.33814 0.6513,-0.70767 1.02164,-1.012 0.38965,-0.3202 0.83714,-0.56271 1.25294,-0.84815 0.32917,-0.22596 0.93168,-0.73895 0.98308,-0.6843 0.0871,0.0926 -0.0422,0.71394 -0.10446,1.06525 -0.0698,0.39364 -0.23444,0.76682 -0.30034,1.16114 -0.0951,0.56894 -0.12228,1.14853 -0.13493,1.72521 -0.0186,0.84523 0.0723,1.6895 0.0867,2.53481 0.008,0.46898 0.0979,0.94844 0,1.40715 -0.0279,0.1308 -0.088,0.25609 -0.16384,0.36625 z"
         id="path833"
         inkscape:connector-curvature="0"
         sodipodi:nodetypes="aaaaaaaaaaaasaaaaaa" />
      <path
         inkscape:connector-curvature="0"
         id="path862-8"
         d="m 399.62664,200.55603 a 1.705331,1.6686573 0 0 1 -1.70532,1.66866 1.705331,1.6686573 0 0 1 -1.70535,-1.66866 1.705331,1.6686573 0 0 1 1.70535,-1.66866 1.705331,1.6686573 0 0 1 1.70532,1.66866 z"
         style="display:inline;opacity:1;fill:none;fill-opacity:1;fill-rule:nonzero;stroke:#001eec;stroke-width:0.351639;stroke-miterlimit:4;stroke-dasharray:none;stroke-opacity:1" />
      <path
         sodipodi:nodetypes="saaascs"
         inkscape:connector-curvature="0"
         id="path865"
         d="m 390.76992,206.99228 c -0.29998,-0.0245 1.00516,-0.65602 1.50363,-0.99019 0.52245,-0.35024 1.06373,-0.67538 1.55864,-1.06354 0.50405,-0.39533 0.96906,-0.83902 1.43028,-1.28359 0.36102,-0.34798 1.04518,-1.08187 1.04518,-1.08187 0.33645,-0.18275 -1.46693,3.9791 -1.46693,3.9791 0,0 -3.66638,0.47311 -4.0708,0.44009 z"
         style="display:inline;fill:none;stroke:#001eec;stroke-width:0.351639;stroke-linecap:butt;stroke-linejoin:miter;stroke-miterlimit:4;stroke-dasharray:none;stroke-opacity:1" />
      <path
         sodipodi:nodetypes="csasssc"
         inkscape:connector-curvature="0"
         id="path867"
         d="m 400.30511,206.71723 c 0,-0.16504 -1.29519,-3.55263 -1.04518,-3.74073 0.18912,-0.14232 0.94125,0.7946 1.41192,1.1919 0.47064,0.3973 0.78891,0.645 1.41192,1.1919 0.46133,0.40493 0.78243,0.51633 1.35694,0.93518 0.51644,0.3765 1.91045,1.09417 1.57697,1.10021 -0.47043,0.008 -4.71257,-0.67846 -4.71257,-0.67846 z"
         style="display:inline;fill:none;stroke:#001eec;stroke-width:0.351639;stroke-linecap:butt;stroke-linejoin:miter;stroke-miterlimit:4;stroke-dasharray:none;stroke-opacity:1" />
      <path
         sodipodi:nodetypes="caaaaaaaaaaac"
         inkscape:connector-curvature="0"
         id="path869"
         d="m 393.53879,200.09761 c -0.0733,0 -1.79134,-0.13337 -2.67719,-0.27506 -1.01928,-0.16302 -2.06359,-0.28578 -3.02558,-0.66012 -0.59986,-0.23343 -1.1609,-0.57625 -1.66866,-0.97186 -0.31027,-0.24174 -0.66723,-0.48326 -0.82516,-0.8435 -0.18922,-0.43162 -0.21322,-0.96189 -0.0733,-1.41194 0.0983,-0.31638 0.32273,-0.6152 0.60511,-0.78848 0.39748,-0.24391 0.91013,-0.29017 1.37527,-0.25672 0.60537,0.0435 1.19206,0.29394 1.72366,0.58678 0.60536,0.33346 1.09656,0.84337 1.61367,1.30192 0.48509,0.43019 0.9449,0.8889 1.39359,1.35693 0.32353,0.33747 0.64725,0.6769 0.93519,1.0452 0.22762,0.29116 0.62344,0.91685 0.62344,0.91685 z"
         style="display:inline;fill:none;stroke:#001eec;stroke-width:0.351639;stroke-linecap:butt;stroke-linejoin:miter;stroke-miterlimit:4;stroke-dasharray:none;stroke-opacity:1" />
      <path
         sodipodi:nodetypes="caaaaaaaaaaaac"
         inkscape:connector-curvature="0"
         id="path872-5"
         d="m 402.13881,200.13428 c 0,0 1.16173,-1.23403 1.76032,-1.83369 0.4917,-0.49256 0.98658,-0.98277 1.50363,-1.44861 0.45119,-0.4065 0.88725,-0.83829 1.39361,-1.17356 0.37153,-0.24599 0.75978,-0.4965 1.19189,-0.60512 0.52179,-0.13115 1.11329,-0.23443 1.61365,-0.0367 0.406,0.16045 0.73464,0.52909 0.93519,0.91684 0.15926,0.30793 0.19916,0.68187 0.16502,1.02687 -0.0327,0.33104 -0.15097,0.66743 -0.3484,0.93518 -0.21981,0.29815 -0.5601,0.49196 -0.88016,0.67846 -0.65323,0.38065 -1.3752,0.63503 -2.0904,0.88017 -0.58068,0.19903 -1.1748,0.3667 -1.77868,0.47676 -0.61032,0.11124 -1.23243,0.15277 -1.85203,0.18337 -0.53724,0.0265 -1.61364,0 -1.61364,0 z"
         style="display:inline;fill:none;stroke:#001eec;stroke-width:0.351639;stroke-linecap:butt;stroke-linejoin:miter;stroke-miterlimit:4;stroke-dasharray:none;stroke-opacity:1" />
      <path
         style="display:inline;opacity:1;fill:none;fill-opacity:1;fill-rule:evenodd;stroke:#001eec;stroke-width:0.351639;stroke-miterlimit:4;stroke-dasharray:none;stroke-opacity:1"
         d="m 405.88084,214.34097 c 0.40799,0.52201 0.75827,1.10599 0.97255,1.73271 0.18127,0.53017 0.24495,1.66295 0.24495,1.66295 0,0 0.61053,0.3237 0.87229,0.54519 0.32433,0.27443 0.6447,0.5795 0.84543,0.95394 0.21765,0.406 0.34757,0.87523 0.3545,1.33584 0.004,0.2799 -0.1912,0.81804 -0.1912,0.81804 0,0 1.19307,-0.50216 1.71772,-0.8723 0.59349,-0.41872 1.15133,-0.9139 1.58078,-1.49965 0.16126,-0.21995 0.29363,-0.458 0.41652,-0.70177 -2.03604,-1.68987 -4.33821,-3.03294 -6.81354,-3.97495"
         id="path1725"
         inkscape:connector-curvature="0" />
      <path
         style="display:inline;opacity:1;fill:none;fill-opacity:1;fill-rule:evenodd;stroke:#001eec;stroke-width:0.351639;stroke-miterlimit:4;stroke-dasharray:none;stroke-opacity:1"
         d="m 414.19816,219.70395 c -0.0756,0.34399 -0.17286,0.68243 -0.31161,1.00407 -0.26557,0.61562 -0.63111,1.20188 -1.09037,1.69034 -0.5565,0.59186 -1.96319,1.44487 -1.96319,1.44487 0,0 1.0067,0.10828 1.49965,0.21808 0.70428,0.15686 1.42095,0.31518 2.07171,0.62683 0.55974,0.26807 1.50375,0.77995 1.53737,1.05007 0.0272,0.218 -0.34136,0.3757 -0.55604,0.50384 -0.39731,0.23718 -0.84937,0.40554 -1.30844,0.46354 -0.50685,0.064 -1.03455,0.001 -1.52652,-0.13642 -0.57527,-0.16104 -1.60869,-0.79065 -1.60869,-0.79066 0,0 0.3263,1.56332 0.49092,2.34456 0.12641,0.59991 0.27487,1.19519 0.38189,1.79886 0.11217,0.63267 0.27234,1.90841 0.27234,1.90841 0,0 1.29937,0.69743 1.88102,1.14515 0.7588,0.5841 1.50009,1.22131 2.07171,1.98955 0.71323,0.95857 1.26545,2.05394 1.63556,3.18998 0.25358,0.77841 0.34756,1.60774 0.38189,2.42569 0.0317,0.75551 -0.0116,1.52222 -0.16382,2.26291 -0.20134,0.97958 -0.50407,1.95616 -0.98133,2.83497 -0.52221,0.9616 -1.23205,1.82759 -2.01693,2.59003 -0.72745,0.70663 -1.57912,1.28525 -2.4536,1.79885 -0.71525,0.42009 -2.26291,1.03611 -2.26291,1.03611 0,0 -0.19639,1.30425 -0.38137,1.93529 -0.1951,0.66551 -0.46268,1.31079 -0.76327,1.9358 -0.27697,0.57591 -0.56702,1.15433 -0.95394,1.66294 -0.68858,0.90517 -2.39934,2.42621 -2.39934,2.42621 0,0 0.008,0.0444 0.0109,0.062 9.38556,-3.50728 15.60548,-12.44647 15.61093,-22.43584 -0.007,-6.3784 -2.56333,-12.49125 -7.10447,-16.98604 z"
         id="path1721"
         inkscape:connector-curvature="0" />
      <path
         style="display:inline;opacity:1;fill:none;fill-opacity:1;fill-rule:evenodd;stroke:#001eec;stroke-width:0.351639;stroke-miterlimit:4;stroke-dasharray:none;stroke-opacity:1"
         d="m 387.16519,258.43079 c -0.16958,-0.24279 -0.32903,-0.4915 -0.45734,-0.75758 -0.17849,-0.37014 -0.21467,-0.79666 -0.38189,-1.17202 -0.63618,-1.42797 -2.34456,-4.06177 -2.34456,-4.06177 0,0 -1.28603,0.21825 -1.93528,0.21808 -0.96936,-2.5e-4 -1.97814,0.002 -2.88975,-0.32712 -0.0558,-0.0202 -0.11037,-0.044 -0.16536,-0.0667 2.24843,2.61713 5.03646,4.72058 8.17418,6.16707 z"
         id="path1717"
         inkscape:connector-curvature="0" />
      <path
         style="display:inline;opacity:1;fill:none;fill-opacity:1;fill-rule:evenodd;stroke:#001eec;stroke-width:0.351639;stroke-miterlimit:4;stroke-dasharray:none;stroke-opacity:1"
         d="m 376.31572,248.45362 c 0.0182,-0.21884 0.0483,-0.43646 0.0873,-0.64854 0.1115,-0.60573 0.40869,-1.1656 0.68161,-1.71773 0.32872,-0.66498 0.68624,-1.3251 1.14515,-1.90789 0.48101,-0.61084 1.10068,-1.09857 1.66295,-1.63556 0.4929,-0.47074 0.96726,-0.9644 1.49914,-1.39061 0.63729,-0.51068 2.01744,-1.3901 2.01744,-1.3901 0,0 -0.32106,-0.80047 -0.57257,-1.14515 -0.32197,-0.4412 -0.7649,-0.78052 -1.17202,-1.14463 -0.28881,-0.25828 -0.52162,-0.6517 -0.89969,-0.73639 -0.25592,-0.0573 -0.50193,0.2133 -0.76326,0.1912 -0.40543,-0.0343 -0.79442,-0.24394 -1.11776,-0.49092 -0.43646,-0.33338 -0.73413,-0.82234 -1.03612,-1.28106 -0.32183,-0.48889 -0.63217,-0.99872 -0.81752,-1.55391 -0.0904,-0.27065 -0.22887,-0.57498 -0.13642,-0.84491 0.0604,-0.17639 0.2401,-0.30243 0.40876,-0.38189 0.38133,-0.17967 0.83411,-0.19833 1.25418,-0.1633 0.55859,0.0466 1.09297,0.26963 1.60818,0.49041 0.37399,0.16027 0.7732,0.31434 1.06298,0.59996 0.26972,0.26585 0.49991,0.60967 0.57258,0.98134 0.0617,0.31529 -0.24314,0.6511 -0.13591,0.95395 0.1738,0.49096 0.78906,0.68243 1.14463,1.06298 0.33523,0.3588 0.64334,0.7444 0.92707,1.14515 0.24045,0.33961 0.43745,0.7078 0.65423,1.06299 0.21026,0.34452 0.62683,1.03611 0.62683,1.03611 0,0 0.59788,-1.0257 0.95395,-1.49914 0.37149,-0.49392 0.83243,-0.91474 1.2268,-1.39061 0.33054,-0.39886 0.6722,-0.79242 0.95446,-1.2268 0.39871,-0.61359 0.73853,-1.26653 1.0356,-1.93528 0.30571,-0.68821 0.61804,-1.38756 0.76326,-2.12648 0.0807,-0.41054 0.088,-0.8366 0.0548,-1.25367 -0.0287,-0.36063 -0.21808,-1.0635 -0.21808,-1.0635 0,0 -1.04542,0.57644 -1.60868,0.76325 -0.48377,0.16045 -0.98969,0.28501 -1.49914,0.30025 -0.59601,0.0178 -1.47068,0.26907 -1.77198,-0.24547 -0.25154,-0.42957 0.28696,-0.96503 0.54519,-1.39061 0.24387,-0.40195 0.56425,-0.76398 0.92707,-1.06298 0.30789,-0.25376 0.65769,-0.47146 1.0356,-0.59945 0.53803,-0.18223 1.1244,-0.16908 1.69033,-0.21808 0.50973,-0.0441 1.5764,0.0386 1.53324,-0.0682 -0.0661,-0.16367 -1.20017,-0.46823 -1.7787,-0.74982 -0.58883,-0.28661 -1.18949,-0.56615 -1.71721,-0.95395 -0.41434,-0.30448 -0.78813,-0.66886 -1.11776,-1.0635 -0.24397,-0.29207 -0.46598,-0.60905 -0.62684,-0.95395 -0.1203,-0.25793 -0.24546,-0.81803 -0.24546,-0.81803 0,0 -0.80247,0.23641 -1.19941,0.16381 -0.35597,-0.0651 -0.62146,-0.37614 -0.95446,-0.5178 -0.35966,-0.15299 -0.86267,-0.0579 -1.11725,-0.3545 -0.19169,-0.22331 -0.0284,-0.59856 -0.13642,-0.8723 -0.1009,-0.25551 -0.47341,-0.40707 -0.46354,-0.68161 0.0179,-0.4978 0.85546,-0.67907 0.92707,-1.17202 0.0214,-0.14696 -0.0957,-0.27882 -0.18448,-0.4129 -5.5881,4.54904 -8.83231,11.35747 -8.83822,18.54823 0.0102,4.12409 1.08778,8.17583 3.12849,11.76362 z"
         id="path1713"
         inkscape:connector-curvature="0" />
      <path
         style="display:inline;opacity:1;fill:none;fill-opacity:1;fill-rule:evenodd;stroke:#001eec;stroke-width:0.351639;stroke-miterlimit:4;stroke-dasharray:none;stroke-opacity:1"
         d="m 394.37198,212.91677 c -3.42418,0.40872 -6.72016,1.54633 -9.66452,3.33571 0.19016,0.009 0.37705,0.0389 0.55552,0.0941 0.40594,0.12534 0.61063,0.59464 0.95394,0.84491 0.23046,0.168 0.59765,0.1867 0.73587,0.43615 0.18504,0.33391 -0.0269,1.14515 -0.0269,1.14515 0,0 1.26352,-0.95116 1.88103,-1.44487 1.09863,-0.87839 2.12101,-1.85168 3.24373,-2.69906 0.76499,-0.5774 1.51438,-1.19546 2.3213,-1.71204"
         id="path1704"
         inkscape:connector-curvature="0" />
      <path
         sodipodi:nodetypes="ssssscaaaaacaaaaaaaaaacaaaaacaaaaaaaaaaacaaaaaacs"
         inkscape:connector-curvature="0"
         id="path860-2"
         d="m 418.76361,215.38446 c 5.52823,5.50004 8.94749,13.09828 8.94749,21.49107 0,16.78559 -13.67708,30.39299 -30.54858,30.39299 -16.87152,0 -30.54858,-13.60741 -30.54858,-30.39299 0,-8.39279 3.41926,-15.99103 8.94747,-21.49107 2.7641,-2.75003 6.71802,-5.49477 10.59285,-6.90439 0,0 -0.90709,-0.0884 -1.32255,-0.25932 -0.51026,-0.20992 -0.99074,-0.52393 -1.37821,-0.91674 -0.40361,-0.40919 -0.79783,-0.89052 -0.93518,-1.44862 -0.12906,-0.52445 -0.0101,-1.09682 0.1467,-1.61365 0.18187,-0.59936 0.55177,-1.12869 0.8985,-1.65032 0.34666,-0.52149 1.17357,-1.46695 1.17357,-1.46695 0,0 -0.59178,-0.9173 -0.85191,-1.39654 -0.21948,-0.40436 -0.4945,-0.7961 -0.59644,-1.24475 -0.12066,-0.53104 -0.0924,-1.09705 0,-1.63374 0.0965,-0.56042 0.32119,-1.09669 0.57051,-1.6078 0.29648,-0.60777 0.5937,-1.2513 1.08916,-1.71153 0.4817,-0.44746 1.10277,-0.76202 1.73746,-0.93356 0.71808,-0.19407 1.49717,-0.20432 2.23017,-0.0778 0.8336,0.14389 1.62338,0.51737 2.35985,0.93357 0.8805,0.4976 1.66394,1.16018 2.4117,1.84119 0.45225,0.41189 0.86767,0.86681 1.24473,1.34848 0.42997,0.5492 1.15202,1.74681 1.15202,1.74681 0.0695,-0.0566 0.14087,-0.11192 0.2168,-0.15988 0.15288,-0.0966 0.30808,-0.19506 0.47834,-0.25606 0.35073,-0.12564 0.72361,-0.21824 1.09617,-0.21824 0.37256,0 0.74544,0.0926 1.09617,0.21824 0.17026,0.061 0.32544,0.15946 0.47834,0.25606 0.0759,0.048 0.14727,0.10328 0.2168,0.15988 0.17105,-0.30359 0.56184,-0.89536 0.89268,-1.30596 0.40283,-0.49997 0.87119,-0.94372 1.32255,-1.40035 0.50709,-0.51303 0.97559,-1.07564 1.55593,-1.50407 0.54779,-0.40441 1.16115,-0.72266 1.78932,-0.98543 0.61566,-0.25752 1.25691,-0.48697 1.919,-0.57051 0.678,-0.0855 1.38666,-0.0918 2.04864,0.0778 0.5243,0.13432 1.02796,0.39008 1.45222,0.7261 0.42339,0.33534 0.77018,0.77533 1.0373,1.24475 0.37182,0.65346 0.6018,1.38977 0.75202,2.12645 0.11076,0.54312 0.17227,1.10962 0.10375,1.65967 -0.0595,0.47743 -0.21815,0.94794 -0.44085,1.37441 -0.27691,0.53024 -1.08918,1.42627 -1.08918,1.42627 0,0 0.7154,0.83526 1.01137,1.29662 0.28392,0.44256 0.5412,0.90813 0.72612,1.40034 0.15962,0.4249 0.30781,0.86894 0.32414,1.32255 0.0159,0.43812 -0.0646,0.88685 -0.22043,1.29661 -0.14496,0.3811 -0.35829,0.75068 -0.6483,1.03729 -0.3311,0.32721 -0.75883,0.55795 -1.1929,0.7261 -0.63231,0.24496 -1.99676,0.38899 -1.99676,0.38899 3.65477,1.53797 6.98592,3.908 9.75003,6.65803 z"
         style="display:inline;opacity:1;fill:none;fill-opacity:1;fill-rule:nonzero;stroke:#001eec;stroke-width:0.351639;stroke-miterlimit:4;stroke-dasharray:none;stroke-opacity:1" />
    </g>
    <path
       sodipodi:nodetypes="ccccc"
       id="path1004-2"
       d="m 24.223526,65.610902 v 60.375748 l 51.841589,1e-5 V 65.610902 Z"
       style="fill:none;fill-opacity:1;stroke:#0074e8;stroke-width:1.07508;stroke-linecap:butt;stroke-linejoin:miter;stroke-miterlimit:4;stroke-dasharray:none;stroke-opacity:1" />
    <text
       id="text946-6"
       y="92.491768"
       x="49.515453"
       style="font-style:normal;font-weight:normal;font-size:11.5212px;line-height:1.25;font-family:sans-serif;letter-spacing:0px;word-spacing:0px;fill:#00b1e8;fill-opacity:1;stroke:none;stroke-width:0.154453;stroke-miterlimit:4;stroke-dasharray:none"
       xml:space="preserve"><tspan
         style="font-style:normal;font-variant:normal;font-weight:bold;font-stretch:normal;font-size:11.5212px;font-family:sans-serif;-inkscape-font-specification:'sans-serif, Bold';font-variant-ligatures:normal;font-variant-caps:normal;font-variant-numeric:normal;font-variant-east-asian:normal;text-align:center;text-anchor:middle;fill:#00b1e8;fill-opacity:1;stroke-width:0.154453;stroke-miterlimit:4;stroke-dasharray:none"
         y="92.491768"
         x="49.515453"
         sodipodi:role="line"
         id="tspan1352">Draw</tspan><tspan
         style="font-style:normal;font-variant:normal;font-weight:bold;font-stretch:normal;font-size:11.5212px;font-family:sans-serif;-inkscape-font-specification:'sans-serif, Bold';font-variant-ligatures:normal;font-variant-caps:normal;font-variant-numeric:normal;font-variant-east-asian:normal;text-align:center;text-anchor:middle;fill:#00b1e8;fill-opacity:1;stroke-width:0.154453;stroke-miterlimit:4;stroke-dasharray:none"
         y="106.89326"
         x="49.515453"
         sodipodi:role="line"
         id="tspan1354">image</tspan></text>
  </g>
</svg>
